# Blender 5.2.0 LTS
# www.blender.org
o Plane.004
v 45.999985 45.999985 45.999981
v 45.999985 -45.999992 45.999989
v -45.999977 45.999985 45.999989
v -45.999969 -46.000000 45.999996
v -45.999977 -46.000000 45.999992
v 45.999985 -46.000000 45.999992
v -45.999977 -46.000008 -45.999985
v 45.999985 -46.000008 -46.000000
v -45.999981 45.999992 -45.999992
v 45.999985 45.999992 -46.000008
v -45.999981 45.999969 45.999985
v 45.999985 45.999969 45.999985
v -45.999981 45.999985 45.999985
v -45.999973 -45.999996 45.999992
v -45.999981 45.999977 -45.999992
v -45.999973 -46.000004 -45.999985
v 46.000000 45.999977 -46.000008
v 46.000015 -46.000008 -46.000000
v 45.999954 45.999985 45.999985
v 45.999969 -46.000000 45.999992
v -45.999989 45.999962 -46.000023
v -45.999981 -46.000011 -46.000015
v 45.999969 45.999977 -45.999977
v 45.999985 -46.000008 -45.999969
vn -0.0000 -0.0000 -1.0000
vn -0.0000 1.0000 -0.0000
vn -0.0000 -1.0000 -0.0000
vn 1.0000 -0.0000 -0.0000
vn -1.0000 -0.0000 -0.0000
vn -0.0000 -0.0000 1.0000
vt 0.000000 0.000000
vt 1.000000 1.000000
vt 0.000000 1.000000
vt 1.000000 0.000000
s 1
f 1/1/1 4/2/1 3/3/1
f 6/4/2 7/3/2 5/1/2
f 10/4/3 11/3/3 9/1/3
f 14/4/4 15/3/4 13/1/4
f 18/4/5 19/3/5 17/1/5
f 22/4/6 23/3/6 21/1/6
f 1/1/1 2/4/1 4/2/1
f 6/4/2 8/2/2 7/3/2
f 10/4/3 12/2/3 11/3/3
f 14/4/4 16/2/4 15/3/4
f 18/4/5 20/2/5 19/3/5
f 22/4/6 24/2/6 23/3/6
